<?xml version="1.0" encoding="UTF-8"?>
<svg width="69px" height="14px" viewBox="0 0 69 14" version="1.1" xmlns="http://www.w3.org/2000/svg" xmlns:xlink="http://www.w3.org/1999/xlink">
    <title>Group 19</title>
    <g id="ch01_Login" stroke="none" stroke-width="1" fill="none" fill-rule="evenodd">
        <g id="Ch1_Login_05" transform="translate(-605.000000, -243.000000)" fill="#FFFFFE">
            <g id="Group-19" transform="translate(605.000000, 243.000000)">
                <path d="M40.6314103,6.72660513 L42.0256667,6.72660513 L41.9667949,4.58245128 C41.9585385,4.31609231 41.9588974,4.05152821 41.9682308,3.79019487 C41.9775641,3.52742564 41.9922821,3.2704 42.0123846,3.0184 C41.9527949,3.24060513 41.8802821,3.4789641 41.7926923,3.7338359 C41.7065385,3.98834872 41.600641,4.27193846 41.4771538,4.58245128 L40.6314103,6.72660513 Z M35.9439231,10.6117846 L40.8493077,0.237066667 L44.2373077,0.237066667 L45.2937692,10.6117846 L42.2087436,10.6117846 L42.1265385,9.01722051 L39.6941282,9.01722051 L39.0346923,10.6117846 L35.9439231,10.6117846 Z" id="Fill-73"></path>
                <path d="M-4.14483263e-14,9.96297436 L0.486769231,7.60594872 C0.738051282,7.90928205 1.02594872,8.15302564 1.35153846,8.33682051 C1.67533333,8.51953846 2.04220513,8.6114359 2.4514359,8.6114359 C3.23687179,8.6114359 3.62958974,8.24528205 3.62958974,7.51189744 C3.62958974,7.24948718 3.52907692,7.00035897 3.32912821,6.76523077 C3.12917949,6.52902564 2.8965641,6.31148718 2.63379487,6.11225641 C2.06482051,5.68328205 1.64805128,5.264 1.38384615,4.85512821 C1.12035897,4.44697436 0.990410256,4.01297436 0.990410256,3.55133333 C0.990410256,3.07964103 1.09415385,2.63164103 1.30523077,2.20769231 C1.51594872,1.78230769 1.80779487,1.40646154 2.18148718,1.07620513 C2.55589744,0.746307692 2.99205128,0.483538462 3.49246154,0.290051282 C3.99179487,0.0965641026 4.52989744,1.08403315e-14 5.10712821,1.08403315e-14 C5.54723077,1.08403315e-14 5.96615385,0.0617435897 6.36497436,0.18774359 C6.762,0.31374359 7.14,0.512974359 7.49646154,0.785076923 L7.00897436,3.11158974 C6.79897436,2.85958974 6.56564103,2.65820513 6.30897436,2.506 C6.05194872,2.35379487 5.74574359,2.27805128 5.39,2.27805128 C4.99153846,2.27805128 4.70579487,2.38610256 4.53276923,2.60041026 C4.36010256,2.8154359 4.27394872,3.06958974 4.27394872,3.36215385 C4.27394872,3.69815385 4.368,3.95984615 4.55753846,4.14830769 C4.74564103,4.33676923 4.99153846,4.56184615 5.29558974,4.82461538 C5.51492308,5.02348718 5.71451282,5.21194872 5.89328205,5.39035897 C6.07025641,5.56841026 6.22353846,5.754 6.34810256,5.94748718 C6.47374359,6.14169231 6.56851282,6.35348718 6.63097436,6.58394872 C6.69451282,6.81441026 6.72610256,7.07682051 6.72610256,7.36974359 C6.72610256,7.78866667 6.63384615,8.20328205 6.45076923,8.6114359 C6.26661538,9.01994872 6.00241026,9.38682051 5.65671795,9.71133333 C5.31102564,10.0365641 4.88420513,10.2986154 4.37517949,10.4967692 C3.86830769,10.696359 3.29394872,10.7957949 2.65497436,10.7957949 C2.13123077,10.7957949 1.64984615,10.7333333 1.20974359,10.6073333 C0.769282051,10.4813333 0.366153846,10.2670256 -4.14483263e-14,9.96297436" id="Fill-75"></path>
                <path d="M64.5161641,0.233333333 L63.9662154,3.63784615 C64.5491897,2.83625641 65.3303179,2.43564103 66.3078051,2.43564103 C66.8710359,2.43564103 67.3836513,2.59071795 67.8531897,2.90087179 C68.3209333,3.21030769 68.5549846,3.75128205 68.5549846,4.5234359 C68.5549846,4.81241026 68.5190872,5.17210256 68.4505231,5.60251282 L67.6037026,10.6155897 L64.5786256,10.6155897 L65.3658564,5.91841026 C65.4337026,5.52569231 65.4674462,5.29415385 65.4674462,5.22666667 C65.4674462,4.80164103 65.2132923,4.58876923 64.6988821,4.58876923 C64.4795487,4.58876923 64.2936,4.64261538 64.1410359,4.75066667 C63.9899077,4.85764103 63.8753949,4.98292308 63.8007282,5.12435897 C63.7246256,5.26651282 63.6528308,5.53179487 63.5846256,5.91984615 L62.8009846,10.6155897 L59.7766256,10.6155897 L61.4928821,0.233333333 L64.5161641,0.233333333 Z" id="Fill-77"></path>
                <path d="M58.7743333,10.4025744 C58.4828462,10.5325231 58.1798718,10.6301641 57.8621795,10.6969333 C57.5455641,10.7647795 57.2264359,10.7981641 56.9037179,10.7981641 C56.0378718,10.7981641 55.4534615,10.5946256 55.1537179,10.1897026 C54.8543333,9.78334359 54.7900769,9.09411282 54.9609487,8.12272821 L55.6071026,4.46190769 L54.7595641,4.46190769 L54.9824872,3.20226667 L58.0190513,0.493446154 L58.8705385,0.493446154 L58.5018718,2.59057436 L60.1492051,2.59057436 L59.8196667,4.46190769 L58.1705385,4.46190769 L57.687,7.20734359 C57.6098205,7.64313846 57.6159231,7.93498462 57.7038718,8.07821538 C57.7939744,8.2221641 57.9982308,8.29539487 58.317359,8.29539487 C58.4695641,8.29539487 58.6178205,8.27744615 58.7610513,8.24334359 C58.9042821,8.2081641 59.0428462,8.15718974 59.1810513,8.09293333 L58.7743333,10.4025744 Z" id="Fill-79"></path>
                <path d="M11.5541282,9.81608205 C11.1657179,10.1463385 10.7830513,10.3918769 10.4072051,10.5541333 C10.031,10.7138769 9.65551282,10.7957231 9.27858974,10.7957231 C8.56423077,10.7957231 8.07351282,10.5588 7.80679487,10.0810051 C7.54079487,9.60392821 7.49412821,8.87521026 7.66679487,7.89556923 L8.61233333,2.53500513 L11.1775641,2.53500513 L10.2977179,7.52762051 C10.2259231,7.9268 10.2305897,8.21074872 10.3127949,8.38018462 C10.3924872,8.55033846 10.5576154,8.63433846 10.8088974,8.63433846 C10.9237692,8.63433846 11.0522821,8.61172308 11.1969487,8.56433846 C11.3391026,8.51731282 11.4999231,8.44910769 11.6743846,8.36187692 L12.7035641,2.53500513 L15.2684359,2.53500513 L14.3903846,7.51326154 C14.3275641,7.87331282 14.3336667,8.1073641 14.4119231,8.21541538 C14.4883846,8.32310769 14.6678718,8.38700513 14.9493077,8.40674872 L14.0418205,10.6596718 C13.8479744,10.7074154 13.6688462,10.7433128 13.5051538,10.7637744 C13.3407436,10.7853128 13.1899744,10.7957231 13.0488974,10.7957231 C12.6281795,10.7957231 12.2954103,10.7171077 12.0509487,10.5570051 C11.8046923,10.3976205 11.640641,10.1502872 11.5541282,9.81608205" id="Fill-81"></path>
                <path d="M50.1018,9.8182 C49.7133897,10.1484564 49.3303641,10.3939949 48.9548769,10.5562513 C48.5783128,10.7159949 48.2031846,10.797841 47.8262615,10.797841 C47.1115436,10.797841 46.6211846,10.5609179 46.3544667,10.0831231 C46.0884667,9.60604615 46.041441,8.87732821 46.2144667,7.89768718 L47.1596462,2.53712308 L49.7252359,2.53712308 L48.8453897,7.53009744 C48.7735949,7.92891795 48.7782615,8.21286667 48.8604667,8.38266154 C48.9398,8.55245641 49.1052872,8.63645641 49.3565692,8.63645641 C49.471441,8.63645641 49.5995949,8.61384103 49.7442615,8.56645641 C49.8867744,8.51978974 50.0475949,8.45122564 50.2220564,8.36399487 L51.2512359,2.53712308 L53.8161077,2.53712308 L52.9380564,7.51537949 C52.8748769,7.87543077 52.8813385,8.10948205 52.9592359,8.21753333 C53.0360564,8.32522564 53.2151846,8.38912308 53.4966205,8.40886667 L52.5891333,10.6617897 C52.3952872,10.7095333 52.216159,10.7454308 52.0524667,10.7658923 C51.8884154,10.7874308 51.7372872,10.797841 51.5965692,10.797841 C51.1758513,10.797841 50.8427231,10.7192256 50.5982615,10.5591231 C50.3523641,10.3997385 50.1883128,10.1524051 50.1018,9.8182" id="Fill-83"></path>
                <path d="M37.9517026,2.82344103 C37.8045231,2.69564615 37.6408308,2.5858 37.4383692,2.53015897 C37.2384205,2.45692821 37.0363179,2.42103077 36.8349333,2.42103077 C36.5053949,2.42103077 36.1941641,2.51185128 35.8829333,2.69564615 C35.5717026,2.87764615 35.2611897,3.15333846 34.9506769,3.50010769 L35.0784718,2.53015897 L32.5534462,2.53015897 L31.1426769,10.5826718 L33.7061128,10.5826718 L34.4014462,6.61205641 C34.4926256,6.0438 34.6584718,5.64174872 34.8950359,5.36605641 C35.1326769,5.0932359 35.4446256,4.96400513 35.8283692,4.96400513 C35.9931385,4.96400513 36.1579077,5.00062051 36.3230359,5.05626154 C36.4684205,5.11046667 36.615959,5.18405641 36.7433949,5.27487692 L37.9517026,2.82344103 Z" id="Fill-85"></path>
                <path d="M18.4899795,8.02472821 C18.5700308,8.12272821 18.6579795,8.19344615 18.7509538,8.24011282 C18.8457231,8.28749744 18.9448,8.31083077 19.0514154,8.31083077 C19.3665949,8.31083077 19.6369026,8.14857436 19.8641333,7.82298462 C20.0899282,7.49847179 20.2557744,7.03539487 20.3623897,6.43447179 C20.4682872,5.8436 20.4643385,5.37585641 20.3523385,5.03088205 C20.2410564,4.68662564 20.0400308,4.5150359 19.7496205,4.5150359 C19.6426462,4.5150359 19.5317231,4.54518974 19.4164923,4.60585641 C19.3030564,4.6676 19.1770564,4.76129231 19.0435179,4.88944615 L18.4899795,8.02472821 Z M14.9591077,13.8275487 L16.9499795,2.52775385 L19.3874154,2.52775385 L19.351159,3.15308718 C19.6193128,2.89247179 19.8899795,2.70185641 20.1570564,2.57908718 C20.4230564,2.45739487 20.6991077,2.39601026 20.9830564,2.39601026 C21.7821333,2.39601026 22.3608,2.76683077 22.7215692,3.50452308 C23.0809026,4.24365128 23.1512615,5.22831795 22.9355179,6.45493333 C22.7215692,7.67544615 22.2818256,8.66549744 21.6188,9.42365128 C20.9568513,10.1818051 20.2195179,10.5616 19.4121846,10.5616 C19.1332615,10.5616 18.8920308,10.5088308 18.6884923,10.4043692 C18.4849538,10.2988308 18.3076205,10.1362154 18.1579282,9.91652308 L17.4658256,13.8275487 L14.9591077,13.8275487 Z" id="Fill-87"></path>
                <path d="M28.231359,5.66195897 C28.2432051,5.60883077 28.2471538,5.54780513 28.2471538,5.47708718 L28.2471538,5.29221538 C28.2471538,5.18524103 28.2388974,5.07001026 28.2238205,4.94688205 C28.2076667,4.82339487 28.1692564,4.70744615 28.1114615,4.60083077 C28.0515128,4.49277949 27.9754103,4.40447179 27.8777692,4.33483077 C27.7815641,4.26483077 27.6534103,4.23036923 27.4915128,4.23036923 C27.4380256,4.23036923 27.3594103,4.24113846 27.2574615,4.2630359 C27.1558718,4.28385641 27.0492564,4.34272821 26.9361795,4.43965128 C26.8234615,4.53549744 26.7132564,4.68088205 26.6062821,4.87401026 C26.5000256,5.06677949 26.4192564,5.32954872 26.3661282,5.66195897 L28.231359,5.66195897 Z M26.1719231,7.19154872 C26.1618718,7.24431795 26.1500256,7.31970256 26.1399744,7.41590769 C26.1299231,7.51283077 26.1238205,7.59898462 26.1238205,7.67365128 C26.1238205,8.07067692 26.2562821,8.3496 26.5179744,8.51042051 C26.7821795,8.6716 27.0955641,8.75201026 27.4595641,8.75201026 C28.0174103,8.75201026 28.5490513,8.67949744 29.0534103,8.53518974 C29.5570513,8.3901641 30.0190513,8.18913846 30.4368974,7.93067692 L30.163359,9.89462564 C30.0133077,10.0026769 29.8309487,10.1092923 29.6152051,10.2166256 C29.4008974,10.3243179 29.1589487,10.4205231 28.8911538,10.5063179 C28.623359,10.5917538 28.3397692,10.6613949 28.0393077,10.7156 C27.7395641,10.7694462 27.4279744,10.7960103 27.1056154,10.7960103 C26.5696667,10.7960103 26.0821795,10.7102154 25.6417179,10.5386256 C25.2023333,10.3670359 24.8221795,10.1197026 24.5062821,9.79806154 C24.1903846,9.47642051 23.9441282,9.08190769 23.7664359,8.6156 C23.5883846,8.14821538 23.5007949,7.62590769 23.5007949,7.04652308 C23.5007949,6.4456 23.5919744,5.86908718 23.7746923,5.31626667 C23.9570513,4.76380513 24.2201795,4.27308718 24.5622821,3.84411282 C24.9061795,3.41513846 25.3204359,3.07411282 25.8018205,2.82139487 C26.2857179,2.57011282 26.8324359,2.44411282 27.4437692,2.44411282 C28.0558205,2.44411282 28.5752564,2.53277949 29.0053077,2.70975385 C29.4332051,2.88636923 29.7828462,3.13872821 30.050641,3.46575385 C30.3187949,3.79349744 30.5112051,4.19554872 30.6311026,4.67262564 C30.7470513,5.15006154 30.806641,5.6896 30.806641,6.28980513 C30.806641,6.47252308 30.8008974,6.63047179 30.7904872,6.76436923 C30.7811538,6.89862564 30.765359,7.04113846 30.7427436,7.19154872 L26.1719231,7.19154872 Z" id="Fill-89"></path>
            </g>
        </g>
    </g>
</svg>