<?xml version="1.0" encoding="UTF-8"?>
<svg width="281px" height="51px" viewBox="0 0 281 51" version="1.1" xmlns="http://www.w3.org/2000/svg" xmlns:xlink="http://www.w3.org/1999/xlink">
    <title>login_logo</title>
    <defs>
        <polygon id="path-1" points="0.878184065 0.975276923 30.2187447 0.975276923 30.2187447 39.2383538 0.878184065 39.2383538"></polygon>
        <polygon id="path-3" points="0.488859574 0.183076923 33.4594021 0.183076923 33.4594021 39.9248923 0.488859574 39.9248923"></polygon>
    </defs>
    <g id="Ch1_1step_Login" stroke="none" stroke-width="1" fill="none" fill-rule="evenodd">
        <g id="Ch1_1step_Login08" transform="translate(-819.000000, -325.000000)">
            <g id="Group-22" transform="translate(819.000000, 325.000000)">
                <polygon id="Fill-1" fill="#FFFFFF" points="27.7589965 1 25.3784701 14.5983015 15.3457742 14.5983015 17.7289739 1 6.48262389 1 0 38 11.2450134 38 13.855439 23.1103324 23.8854616 23.1103324 21.2817191 38 32.5280691 38 39 1"></polygon>
                <path d="M43.0281415,37.7033846 L38.850067,9.70307692 L48.7581096,9.70307692 L49.7748223,19.3250769 C49.8677266,20.23 49.9135245,21.0891538 49.9135245,21.9143077 C49.9135245,22.7446923 49.8716521,23.5410769 49.7905245,24.3204615 C50.1359713,23.3789231 50.4774926,22.5014615 50.8098543,21.6841538 C51.142216,20.8694615 51.4562585,20.1554615 51.7454394,19.5447692 L56.3069074,9.70307692 L65.6745351,9.70307692 L45.4096309,50.9921538 L36.7433649,50.9921538 L43.0281415,37.7033846 Z" id="Fill-2" fill="#FFFFFF"></path>
                <path d="M145.253572,10.7253 C144.717083,10.2584538 144.119094,9.85960769 143.379785,9.65299231 C142.647019,9.38753077 141.907711,9.25676154 141.171019,9.25676154 C139.969806,9.25676154 138.830094,9.58760769 137.695615,10.2584538 C136.555902,10.9201462 135.421423,11.9296846 134.286945,13.1981462 L134.754083,9.65299231 L125.527774,9.65299231 L120.373551,39.0616846 L129.737253,39.0616846 L132.279689,24.5633 C132.612051,22.4840692 133.217891,21.0155308 134.081509,20.0099154 C134.95036,19.0134538 136.093998,18.5413769 137.494104,18.5413769 C138.094711,18.5413769 138.700551,18.6734538 139.303774,18.8800692 C139.832413,19.0775308 140.368902,19.3469154 140.837349,19.6764538 L145.253572,10.7253 Z" id="Fill-4" fill="#FFFFFF"></path>
                <path d="M60.8949383,51 L68.171566,9.73184615 L77.0772894,9.73184615 L76.9477468,12.0150769 C77.9291298,11.0617692 78.9144383,10.3673846 79.8866617,9.91623077 C80.8628106,9.47553846 81.8742894,9.25323077 82.9093213,9.25323077 C85.8312255,9.25323077 87.9470872,10.6040769 89.2608319,13.3018462 C90.5745766,16.0022308 90.8323532,19.5957692 90.0420128,24.072 C89.2608319,28.5286154 87.6552894,32.1456923 85.2358532,34.9166923 C82.8124915,37.6850769 80.1182681,39.0699231 77.1675766,39.0699231 C76.1469383,39.0699231 75.2676191,38.8776923 74.5217681,38.4932308 C73.7811511,38.1126923 73.1347468,37.5163846 72.5877894,36.7147692 L70.0597468,51 L60.8949383,51 Z M73.7981617,29.8062308 C74.0925766,30.1632308 74.4144702,30.4221538 74.752066,30.5908462 C75.0988213,30.7686923 75.4599702,30.8484615 75.8538319,30.8484615 C77.0040128,30.8484615 77.9919383,30.2560769 78.8176085,29.0686923 C79.6485128,27.8852308 80.2491191,26.1956923 80.6403638,24.0013846 C81.0263745,21.8397692 81.0132894,20.1319231 80.605034,18.8752308 C80.1954702,17.6159231 79.4640128,16.9882308 78.3988851,16.9882308 C78.0102574,16.9882308 77.6046191,17.0980769 77.1819702,17.323 C76.7684809,17.5466154 76.3105021,17.8879231 75.8198106,18.3547692 L73.7981617,29.8062308 Z" id="Fill-6" fill="#FFFFFF"></path>
                <path d="M101.844648,26.5759692 C101.809318,26.7695077 101.760903,27.0480462 101.726882,27.3998154 C101.688935,27.7528923 101.667999,28.0615077 101.667999,28.3400462 C101.667999,29.7928923 102.150839,30.8102769 103.109978,31.3974308 C104.073041,31.9793538 105.217988,32.2762 106.547435,32.2762 C108.583478,32.2762 110.529233,32.0159692 112.368999,31.4837385 C114.211382,30.9528154 115.900669,30.2205077 117.426393,29.2802769 L116.427999,36.4516615 C115.878424,36.8426615 115.213701,37.2310462 114.423361,37.6272769 C113.644797,38.0156615 112.757627,38.3726615 111.778861,38.6812769 C110.800095,38.9938154 109.765063,39.2488154 108.665914,39.4449692 C107.569382,39.6450462 106.429669,39.7392 105.253318,39.7392 C103.295786,39.7392 101.514903,39.4279692 99.9080521,38.8042 C98.3025096,38.1765077 96.9115628,37.2689692 95.7548394,36.0998923 C94.6046585,34.9216615 93.7044032,33.4792769 93.0553819,31.7779692 C92.4011266,30.0766615 92.08185,28.1608923 92.08185,26.0515846 C92.08185,23.8533538 92.4168287,21.7479692 93.0841691,19.7288923 C93.7488926,17.7098154 94.7119564,15.9208923 95.961584,14.3516615 C97.2190628,12.7837385 98.729084,11.5427385 100.492956,10.6221231 C102.258137,9.70150769 104.254924,9.24250769 106.488552,9.24250769 C108.727414,9.24250769 110.623446,9.56158462 112.194967,10.2115077 C113.758637,10.8575077 115.039669,11.7807385 116.018435,12.9733538 C116.997201,14.1685846 117.697254,15.6318923 118.134297,17.3815846 C118.560871,19.1234308 118.778084,21.0967385 118.778084,23.2871231 C118.778084,23.9501231 118.758456,24.5281231 118.719201,25.0185077 C118.683871,25.5088923 118.627605,26.0267385 118.546478,26.5759692 L101.844648,26.5759692 Z M109.365967,20.9921231 C109.411765,20.7959692 109.427467,20.5762769 109.427467,20.3160462 L109.427467,19.6412769 C109.427467,19.2542 109.396063,18.8278923 109.341105,18.3767385 C109.282222,17.9282 109.14352,17.5071231 108.928924,17.1161231 C108.709095,16.7225077 108.432999,16.4008154 108.075776,16.1458154 C107.722478,15.8921231 107.260573,15.7639692 106.665201,15.7639692 C106.467616,15.7639692 106.183669,15.8058154 105.810744,15.8803538 C105.440435,15.9614308 105.051807,16.1745846 104.633084,16.5315846 C104.226137,16.8846615 103.825733,17.4090462 103.429254,18.1191231 C103.03801,18.8161231 102.746212,19.7798923 102.552552,20.9921231 L109.365967,20.9921231 Z" id="Fill-8" fill="#FFFFFF"></path>
                <path d="M237.396274,36.4007923 C235.962147,37.6195615 234.548955,38.5257923 233.161934,39.1234077 C231.776221,39.7131769 230.390509,40.0152538 228.995636,40.0152538 C226.362913,40.0152538 224.551934,39.1391 223.565317,37.3789462 C222.583934,35.6187923 222.412519,32.9301769 223.048455,29.3183308 L226.539562,9.55256154 L236.006636,9.55256154 L232.760221,27.9622538 C232.494594,29.4360231 232.510296,30.4782538 232.81387,31.1059462 C233.110902,31.7323308 233.718051,32.0461769 234.643168,32.0461769 C235.071051,32.0461769 235.54604,31.9598692 236.077296,31.7833308 C236.602009,31.6120231 237.199998,31.3596385 237.838551,31.0392538 L241.638466,9.55256154 L251.10554,9.55256154 L247.86436,27.9060231 C247.631445,29.2359462 247.657615,30.1003308 247.944179,30.4952538 C248.229434,30.8967154 248.886306,31.1294846 249.926572,31.2027154 L246.576785,39.5091769 C245.86103,39.6883308 245.198923,39.8204077 244.598317,39.8975615 C243.98986,39.9734077 243.429817,40.0152538 242.911647,40.0152538 C241.359753,40.0152538 240.136296,39.7236385 239.230806,39.1338692 C238.324009,38.5441 237.715551,37.6313308 237.396274,36.4007923" id="Fill-10" fill="#FFFFFF"></path>
                <path d="M204.19792,24.5351846 C204.60225,22.2938 205.209399,20.4669538 206.093952,19.1736462 C206.978505,17.8881846 207.929793,17.2068769 209.018473,17.2068769 C210.096686,17.2068769 210.845154,17.8881846 211.254718,19.1736462 C211.657739,20.4669538 211.657739,22.2938 211.254718,24.5351846 C210.845154,26.8367231 210.231463,28.6701077 209.348218,29.9568769 C208.468899,31.2462615 207.520229,31.9262615 206.370048,31.9262615 C205.348101,31.9262615 204.60225,31.2462615 204.19792,29.9568769 C203.787048,28.6701077 203.787048,26.8367231 204.19792,24.5351846 M219.261495,13.2772615 C217.430888,10.4958 214.446176,9.07564615 210.370165,9.14103077 C206.370048,9.07564615 202.905112,10.4958 200.055176,13.2772615 C197.205239,15.9894154 195.373324,19.7150308 194.558122,24.5351846 C193.676186,29.2794923 194.21791,33.0090308 196.047207,35.7878769 C197.952399,38.5719538 200.937112,39.9254154 204.941154,39.9254154 C209.018473,39.9254154 212.475559,38.5719538 215.328112,35.7878769 C218.10608,33.0090308 219.945846,29.2794923 220.827782,24.5351846 C221.704484,19.7150308 221.165378,15.9894154 219.261495,13.2772615" id="Fill-12" fill="#FFFFFF"></path>
                <g id="Group-16" transform="translate(250.595745, 0.000000)">
                    <mask id="mask-2" fill="white">
                        <use xlink:href="#path-1"></use>
                    </mask>
                    <g id="Clip-15"></g>
                    <path d="M15.4957755,31.4510462 L17.9361479,17.6470462 C17.4611585,17.4430462 17.0646798,17.3057385 16.7558713,17.2298923 C16.4392117,17.1592769 16.163116,17.1226615 15.924967,17.1226615 C14.6517862,17.1226615 13.5814245,17.7385846 12.7099564,18.9625846 C11.8332543,20.1905077 11.192084,21.9755077 10.7851372,24.3136615 C10.3559457,26.7145846 10.382116,28.5008923 10.8466372,29.6804308 C11.312467,30.8638923 12.2140309,31.4510462 13.5604883,31.4510462 L15.4957755,31.4510462 Z M23.4724564,39.2383538 L14.259233,39.2383538 C11.1973181,39.2383538 8.94013723,39.0186615 7.48638191,38.5818923 C6.02739255,38.1451231 4.78692447,37.4193538 3.76497766,36.3928154 C2.4289883,35.0628923 1.56013723,33.3328154 1.14795638,31.2065077 C0.734467021,29.0854308 0.798584043,26.5328154 1.32460532,23.5591231 C2.07830745,19.2764308 3.68908404,15.7953538 6.16478617,13.1158923 C8.6287117,10.4312 11.4393926,9.09473846 14.5732755,9.09473846 C15.4957755,9.09473846 16.3541585,9.20850769 17.1261798,9.43343077 C17.9008181,9.65835385 18.5904032,9.99050769 19.2093287,10.4272769 L20.8750628,0.975276923 L30.2191372,0.975276923 L23.4724564,39.2383538 Z" id="Fill-14" fill="#FFFFFF" mask="url(#mask-2)"></path>
                </g>
                <polygon id="Fill-17" fill="#FFFFFF" points="189.272655 39.2384846 178.426411 39.2384846 184.794932 0.992407692 195.641177 0.992407692"></polygon>
                <g id="Group-21" transform="translate(145.914894, 0.000000)">
                    <mask id="mask-4" fill="white">
                        <use xlink:href="#path-3"></use>
                    </mask>
                    <g id="Clip-20"></g>
                    <path d="M30.0350298,35.7546615 C28.4347213,36.9760462 26.4627957,37.9738154 24.1205617,38.7532 C21.7770191,39.5325846 19.234583,39.9248923 16.4893277,39.9248923 C14.0921362,39.9248923 11.9003809,39.5979692 9.91667872,38.9519692 C7.93559362,38.3059692 6.2489234,37.2768154 4.85928511,35.8671231 C3.47095532,34.4626615 2.39274255,32.6358154 1.63380638,30.3878923 C0.86963617,28.1412769 0.488859574,25.4382769 0.488859574,22.2775846 C0.488859574,19.8047385 0.880104255,17.2665077 1.65866809,14.6602769 C2.44377447,12.0514308 3.61227447,9.67535385 5.17594468,7.52550769 C6.73699787,5.37304615 8.66443404,3.60896923 10.9490936,2.24112308 C13.2311362,0.869353846 15.8965723,0.182815385 18.9480191,0.182815385 C20.5103809,0.182815385 22.1277,0.448276923 23.8039021,0.980507692 C25.4787957,1.50881538 27.0241468,2.35750769 28.4347213,3.53312308 C29.8387532,4.70350769 31.0137957,6.21127692 31.9493809,8.04727692 C32.8797319,9.88458462 33.3835085,12.1377385 33.4594021,14.8041231 L23.0606681,16.3445846 C23.1012319,15.5076615 23.0737532,14.6302 22.9782319,13.7161231 C22.8814021,12.8020462 22.6694234,11.9847385 22.3475298,11.2602769 C22.0282532,10.5384308 21.5912106,9.94081538 21.0416362,9.46612308 C20.4946787,8.99012308 19.7658383,8.75212308 18.8538064,8.75212308 C17.9443915,8.75212308 17.1802213,8.98227692 16.5534447,9.43866154 C15.9332106,9.89373846 15.4058809,10.4795846 14.9923915,11.1818154 C14.5736681,11.8892769 14.2439234,12.6634308 13.9926894,13.5016615 C13.7479979,14.3385846 13.5477957,15.1428154 13.397317,15.9025846 C13.1343064,17.0847385 12.9118596,18.4133538 12.7430617,19.8818923 C12.5742638,21.3556615 12.4722,22.7143538 12.4316362,23.9749692 C12.3570511,26.1509692 12.8307319,27.8392 13.8579128,29.0422769 C14.8798596,30.2453538 16.6306468,30.8429692 19.0971894,30.8429692 C21.4917638,30.8429692 23.7397851,30.4375846 25.8491043,29.6176615 C27.9544979,28.8003538 29.8845511,27.7241231 31.6301043,26.3889692 L30.0350298,35.7546615 Z" id="Fill-19" fill="#FFFFFF" mask="url(#mask-4)"></path>
                </g>
            </g>
        </g>
    </g>
</svg>